<?xml version="1.0" standalone="no"?>
<!DOCTYPE svg PUBLIC "-//W3C//DTD SVG 1.1//EN" "http://www.w3.org/Graphics/SVG/1.1/DTD/svg11.dtd">
<svg xmlns="http://www.w3.org/2000/svg">
<metadata>Copyright (C) 2014 by original authors @ fontello.com</metadata>
<defs>
<font id="mivaicons" horiz-adv-x="1000" >
<font-face font-family="mivaicons" font-weight="400" font-stretch="normal" units-per-em="1000" ascent="850" descent="-150" />
<missing-glyph horiz-adv-x="1000" />
<glyph glyph-name="add" unicode="&#xe002;" d="m445 850l0-445-445 0 0-110 445 0 0-445 110 0 0 445 445 0 0 110-445 0 0 445-110 0z" horiz-adv-x="1000" />
<glyph glyph-name="assign" unicode="&#xe003;" d="m50 850c-28 0-50-22-50-50l0-900c0-28 22-50 50-50l900 0c28 0 50 22 50 50l0 900c0 28-22 50-50 50l-900 0z m110-110l680 0c28 0 50-22 50-50l0-680c0-28-22-50-50-50l-680 0c-28 0-50 22-50 50l0 680c0 28 22 50 50 50z m285-170l0-165-165 0 0-110 165 0 0-165 110 0 0 165 165 0 0 110-165 0 0 165-110 0z" horiz-adv-x="1000" />
<glyph glyph-name="bookmark" unicode="&#xe004;" d="m644 850q25 0 40-17 16-16 16-39l0-944-200 200-200-200 0 944q0 56 44 56l300 0z" horiz-adv-x="1000" />
<glyph glyph-name="cancel" unicode="&#xe005;" d="m99 850l-99-99 401-401-401-401 99-99 401 401 401-401 99 99-401 401 401 401-99 99-401-401-401 401z" horiz-adv-x="1000" />
<glyph glyph-name="catalog" unicode="&#xe006;" d="m216 850h-147c-38 0-69-31-69-70v-705-27-128c0-39 31-70 70-70h146c38 0 69 31 69 70v128 27 705c0 39-31 70-69 70z m-133-59h120c12 0 23-10 23-22v-534h-166v534c0 12 10 22 23 22z m120-880h-120c-13 0-23 10-23 23v130h166v-130c0-13-11-23-23-23z m-103 776c0 23 19 42 43 42 23 0 42-19 42-42s-19-43-42-43c-24 0-43 19-43 43z m831 163h-147c-38 0-69-31-69-70v-705-27-128c0-39 31-70 70-70h146c38 0 69 31 69 70v128 27 705c0 39-31 70-69 70z m-134-59h121c12 0 22-10 22-22v-534h-165v534c0 12 10 22 22 22z m121-880h-121c-12 0-22 10-22 23v130h165v-130c0-13-10-23-22-23z m-103 776c0 23 19 42 43 42s42-19 42-42-19-43-42-43-43 19-43 43z m-242 163h-146c-38 0-70-31-70-70v-705-27-128c0-39 32-70 70-70h146c38 0 70 31 70 70v128 27 705c0 39-32 70-70 70z m-133-59h120c13 0 23-10 23-22v-534h-166v534c0 12 10 22 23 22z m120-880h-120c-13 0-23 10-23 23v130h166v-130c0-13-10-23-23-23z m-102 776c0 23 19 42 42 42s42-19 42-42-19-43-42-43-42 19-42 43z" horiz-adv-x="1000" />
<glyph glyph-name="changesort" unicode="&#xe007;" d="m693 621l98 0-39 123-8 25c0 6 0 10 0 12l-4 0 0-12c0 0-2-3-2-9-2-6-4-12-6-16z m-254-573c0-6-2-10-6-14l-177-178c-4-4-10-6-14-6-4 0-8 2-14 6l-177 178c-6 6-8 12-4 20 4 7 8 11 17 11l106 0 0 767c0 6 2 10 6 12 4 4 7 6 13 6l106 0c6 0 10-2 13-6 4-2 6-6 6-12l0-767 106 0c6 0 10-2 13-5 4-4 6-8 6-12z m465-67l0-131-324 0 0 51 205 295c4 6 8 12 12 16l6 4 0 2c0 0-2 0-4 0-2 0-2 0-4 0-4-2-10-2-16-2l-131 0 0-65-66 0 0 127 316 0 0-49-205-295c-4-3-8-7-11-15l-8-6 0-2 8 2c3 0 9 2 17 2l139 0 0 66z m51 499l0-58-160 0 0 58 41 0-26 80-136 0-26-80 41 0 0-58-160 0 0 58 39 0 129 370 90 0 129-370z" horiz-adv-x="1000" />
<glyph glyph-name="checkmark" unicode="&#xe008;" d="m833 767l-500-500-166 166-167-166 333-334 667 667z" horiz-adv-x="1000" />
<glyph glyph-name="chevron_next" unicode="&#xe009;" d="m350 850l-200-200 300-299-300-301 200-200 500 501z" horiz-adv-x="1000" />
<glyph glyph-name="chevron_previous" unicode="&#xe00a;" d="m850 650l-200 200-500-499 500-501 200 200-300 301z" horiz-adv-x="1000" />
<glyph glyph-name="columnresize" unicode="&#xe00b;" d="m364-83v138q0 28 20 48 21 21 49 19h136q28 0 48-19 20-19 19-48v-138q0-28-19-47-19-19-48-20h-136q-30 0-49 20-19 21-20 47z m0 364v136q0 30 20 49 21 19 49 20h136q28 0 48-20 20-21 19-49v-136q0-28-19-48-19-20-48-19h-136q-30 0-49 19-19 19-20 48z m0 364v136q0 28 20 49 21 20 49 20h136q28 0 48-20 20-21 19-49v-136q0-28-19-48-19-21-48-21h-136q-30 0-49 21-19 20-20 48z" horiz-adv-x="1000" />
<glyph glyph-name="customers" unicode="&#xe00c;" d="m649 483c0-57-46-164-104-164s-104 107-104 164 47 104 104 104 104-46 104-104z m115-327c15 11 21 31 15 49-4 14-10 27-18 40-18 29-47 48-79 59-6 3-14 1-19-3-30-25-64-58-118-58-55 0-87 33-117 58-6 4-13 6-20 3-24-9-47-23-65-42-15-16-25-36-32-57-6-18 0-38 15-49 78-54 360-54 438 0z m236 498v-608c0-108-88-196-196-196h-544c-109 0-197 88-197 196v59h-63v90h63v110h-63v90h63v111h-63v89h63v59c0 108 88 196 197 196h544c108 0 196-88 196-196z m-100 0c0 53-43 96-96 96h-544c-54 0-97-43-97-96v-59h63v-89h-63v-111h63v-90h-63v-111h63v-89h-63v-59c0-53 43-96 97-96h544c53 0 96 43 96 96v608z" horiz-adv-x="1000" />
<glyph glyph-name="datamanagement" unicode="&#xe00d;" d="m1000 183l-168 512c-8 32-36 55-69 55h-520c-33 0-63-23-72-55l-171-513v-165c0-37 32-67 69-67h867c37 0 64 30 64 67v166z m-707 500h420c14 0 26-9 31-22l132-402c7-21-9-42-31-42h-218c-5-34-34-67-70-67h-132c-35 0-64 33-69 67h-197c-22 0-38 21-31 43l134 401c4 13 16 22 31 22z m-57-333h533l-33-67h-467l-33 67z m33 133h467l-34-66h-400l-33 66z m33 134h400l-32-67h-335l-33 67z" horiz-adv-x="1000" />
<glyph glyph-name="delete" unicode="&#xe00e;" d="m375 455l0-377c0-7-2-12-5-14-5-3-9-6-16-6l-41 0c-7 0-12 3-17 6-4 2-4 7-4 14l0 377c0 4 0 11 4 14 5 4 10 7 17 7l41 0c7 0 11-3 16-7 3-3 5-10 5-14z m166 0l0-377c0-7-2-12-5-14-4-3-9-6-15-6l-42 0c-6 0-11 3-15 6-3 2-5 7-5 14l0 377c0 4 2 11 5 14 4 4 9 7 15 7l42 0c6 0 11-3 15-7 3-3 5-10 5-14z m167 0l0-377c0-7 0-12-4-14-5-3-10-6-17-6l-41 0c-7 0-11 3-16 6-3 2-5 7-5 14l0 377c0 4 2 11 5 14 5 4 9 7 16 7l41 0c7 0 12-3 17-7 4-3 4-10 4-14z m84-473l0 619-584 0 0-619c0-9 2-19 4-27 3-7 7-14 10-16 4-5 7-7 7-7l542 0c0 0 3 2 7 7 3 2 7 9 10 16 2 8 4 18 4 27z m-438 702l292 0-31 77c-3 2-7 5-12 7l-206 0c-5-2-9-5-12-7z m606-21l0-41c0-7-3-12-5-16-5-3-9-5-16-5l-62 0 0-619c0-36-11-68-32-93-21-28-46-39-74-39l-542 0c-28 0-53 11-74 36-20 26-32 58-32 94l0 621-62 0c-7 0-11 2-16 5-2 4-5 9-5 16l0 41c0 7 3 12 5 16 5 3 9 5 16 5l202 0 45 109c7 16 19 30 36 42 17 10 36 15 51 15l210 0c17 0 34-5 51-15 17-12 29-26 36-42l45-109 202 0c7 0 11-2 16-5 2-4 5-9 5-16z" horiz-adv-x="1000" />
<glyph glyph-name="notification" unicode="&#xe00f;" d="m36 64q106 90 160 222 54 132 54 278 0 92 54 146 54 54 147 66-4 10-4 20 0 23 15 38 15 15 38 16 22 1 37-16 15-17 16-38 0-10-5-20 94-11 148-66 54-55 53-146 0-146 54-278 54-132 161-222 0-29-22-50-22-21-50-21h-250q0-59-42-101-42-42-100-42-59 0-101 42-42 42-42 101h-250q-29 0-50 21-21 21-21 50z m366-71q0-41 29-70 29-29 69-28 8 0 8 9 0 9-8 8-33 0-56 24-23 24-24 57 0 9-9 9-9 0-9-9z" horiz-adv-x="1000" />
<glyph glyph-name="disp_order" unicode="&#xe010;" d="m500 850c0 0 230-364 230-364 0 0-460 0-460 0 0 0 230 364 230 364m0-1000c0 0-230 366-230 366 0 0 460 0 460 0 0 0-230-366-230-366" horiz-adv-x="1000" />
<glyph glyph-name="domainsettings" unicode="&#xe011;" d="m479 230c0-55-44-99-99-99s-99 44-99 99c0 54 44 98 99 98s99-44 99-98z m387 570h-268l-94-163h91l48 84h177l89-154-89-153h-76l46-79h76l134 232-134 233z m-106-570l-190 328h-380l-190-328 190-330h380l190 330z m-653 0l137 235h272l136-235-136-236h-272l-137 236z m625 405c-37 0-68-30-68-68s31-67 68-67 67 30 67 67-30 68-67 68z" horiz-adv-x="1000" />
<glyph glyph-name="download" unicode="&#xe012;" d="m813 600c-8 0-18-2-26-2-47 111-158 190-287 190-129 0-240-79-287-190-8 0-18 2-25 2-104 0-188-84-188-187 0-104 84-188 188-188 19 0 39 4 56 10 33-37 80-61 131-69l0 63c-49 12-90 43-109 86-22-18-49-27-78-27-69 0-125 56-125 125 0 68 56 125 125 125 25 0 46-8 66-20 21 117 123 207 246 207 123 0 225-90 244-207 20 12 43 20 69 20 68 0 125-57 125-125 0-69-57-125-125-125-10 0-20 2-30 3-27-41-74-66-127-66-11 0-21 2-31 4l0-63c10-1 22-3 31-3 61 0 114 23 153 62 2 0 2 0 4 0 103 0 187 84 187 188 0 103-84 187-187 187z m-250-187l-125 0 0-313-125 0 187-188 188 188-125 0z" horiz-adv-x="1000" />
<glyph glyph-name="dropdown" unicode="&#xe013;" d="m0 795h1000v-222h-1000v222z m943-389v-112h-665v112h665m57 55h-777v-221h777v221l0 0z m-57-388v-111h-665v111h665m57 54h-777v-222h777v222l0 0z" horiz-adv-x="1000" />
<glyph glyph-name="edit" unicode="&#xe014;" d="m785 850l-143-143 215-214 143 143z m-785-785l0-215 214 0 571 571-214 215z m214-143l-143 0 0 143 72 0 0-72 71 0z" horiz-adv-x="1000" />
<glyph glyph-name="exclamation" unicode="&#xe015;" d="m572 46l0 105c0 6-2 10-6 14-3 4-7 6-13 6l-106 0c-6 0-9-2-13-6-4-4-6-8-6-14l0-105c0-6 2-10 6-14 4-2 7-4 13-4l106 0c6 0 10 2 13 4 4 4 6 8 6 14z m-2 209l10 256c0 4-2 8-6 12-4 3-8 5-13 5l-121 0c-6 0-10-2-14-5-4-4-6-8-6-12l10-256c0-4 2-6 6-10 2-2 7-4 11-4l104 0c6 0 10 2 14 4 3 4 5 6 5 10z m-7 521l427-785c13-23 13-47 0-70-6-12-15-20-25-27-12-6-24-8-37-8l-856 0c-13 0-25 2-37 8-10 7-19 15-25 27-13 23-13 47 0 70l428 785c5 12 15 20 25 28 12 6 23 10 37 10 14 0 25-4 37-10 10-8 20-16 26-28z" horiz-adv-x="1000" />
<glyph glyph-name="export" unicode="&#xe016;" d="m688 475l-125 0 0-187-125 0 0 187-125 0 187 188z m-688-125l0-312 1000 0 0 312-125 0 0-187-750 0 0 187z" horiz-adv-x="1000" />
<glyph glyph-name="goto" unicode="&#xe017;" d="m833 17l-666 0 0 664 166 2 0 167-333 0 0-1000 1000 0 0 416-167 0z m-333 833l167-167-250-250 167-167 249 251 167-167 0 500z" horiz-adv-x="1000" />
<glyph glyph-name="history" unicode="&#xe018;" d="m562 376l0 212c0 36-27 62-62 62-35 0-62-26-62-62l0-237c0-5 0-9 0-14 0 0 0-2 2-4 0-3 0-5 3-7 0-2 2-5 2-7 0 0 2-2 2-4 2-3 7-7 9-9l169-169c13-13 29-18 44-18 15 0 33 5 44 18 24 25 24 64 0 88z m-62 474c-276 0-500-223-500-499 0-278 224-501 500-501 274 0 500 223 500 501 0 276-226 499-500 499z m0-874c-207 0-375 168-375 375 0 205 168 374 375 374 207 0 375-169 375-374 0-207-168-375-375-375z" horiz-adv-x="1000" />
<glyph glyph-name="home" unicode="&#xe019;" d="m188 288l62-376 188 0 0 314 125 0 0-314 187 0 63 376-313 313z m625 188l0 250-125 0 0-125-188 187-500-500 125 0 375 375 375-375 125 0z" horiz-adv-x="1000" />
<glyph glyph-name="import" unicode="&#xe01a;" d="m313 475l125 0 0 188 125 0 0-188 125 0-188-187z m-313-125l0-312 1000 0 0 312-125 0 0-187-750 0 0 187z" horiz-adv-x="1000" />
<glyph glyph-name="logging" unicode="&#xe01b;" d="m1000 597v-551c0-108-88-196-196-196h-608c-108 0-196 88-196 196v608c0 108 88 196 196 196h605c14 0 21-17 11-27l-70-69c-2-3-6-4-9-4h-537c-53 0-96-43-96-96v-608c0-53 43-96 96-96h608c53 0 96 43 96 96v483c0 4 2 8 5 11l68 68c10 10 27 3 27-11z m-12 167l-46 46c-14 14-36 14-51 0l-68-69 94-95 71 71c13 13 13 34 0 47z m-119-165l-94 94-416-416 94-94 416 416z m-630-505c-6-12 6-25 18-20l146 61-40 40-55 54-69-135z" horiz-adv-x="1000" />
<glyph glyph-name="logout" unicode="&#xe01c;" d="m744 350c0-33-27-61-61-61h-366c-34 0-61 28-61 61l0 0c0 34 27 61 61 61h366c34 0 61-27 61-61l0 0z m256 0c0 276-224 500-500 500s-500-224-500-500 224-500 500-500 500 224 500 500z m-100 0c0-221-179-400-400-400s-400 179-400 400 179 400 400 400 400-179 400-400z" horiz-adv-x="1000" />
<glyph glyph-name="lookup" unicode="&#xe01d;" d="m915-9l-183 244c53 65 86 148 86 239 0 208-169 376-376 376-207 0-375-168-375-376 0-208 168-375 375-375 53 0 102 10 148 30l181-243c17-22 45-36 74-36 18 0 36 6 52 17 20 14 33 34 36 58 3 24-3 47-18 66z m-781 483c0 170 138 308 308 308 170 0 308-138 308-308 0-170-138-308-308-308-170 0-308 138-308 308z m450 0c0-78-64-141-142-141-78 0-141 63-141 141 0 78 63 142 141 142 78 0 142-64 142-142z" horiz-adv-x="1000" />
<glyph glyph-name="manageshipments" unicode="&#xe01e;" d="m988 588l-112 208c-18 33-53 54-91 54h-570c-38 0-73-21-91-54l-111-207c-9-15-13-32-13-50v-586c0-57 46-103 103-103h794c57 0 103 46 103 103v586c0 17-4 34-12 49z m-200 160l88-165h-287l-20 167h216c1 0 2-1 3-2z m-576 0c1 1 2 2 3 2h206l-16-167h-282l89 165z m685-798h-794c-1 0-3 1-3 3l0 564h299 197 304v-564c0-2-1-3-3-3z m-397 443l142-143h-92v-167h-100v167h-92l142 143z" horiz-adv-x="1000" />
<glyph glyph-name="marketing" unicode="&#xe01f;" d="m582 121c-15-12-35-20-60-23v-61h-49v59c-12 1-23 3-35 5-17 4-33 10-49 18v70c18-12 36-22 52-28 17-7 34-10 50-10 17 0 30 4 39 12 9 7 14 18 14 31 0 11-3 20-9 27-6 8-15 14-27 19l-33 12c-34 13-57 27-69 41-12 14-18 34-18 58 0 31 10 55 29 73 15 13 34 21 56 24v56h49v-55c8-1 16-2 24-4 16-4 32-9 47-16v-66c-14 10-29 18-44 23-15 6-30 8-44 8-17 0-29-3-38-9-9-7-13-16-13-29 0-9 3-17 9-23 7-6 20-13 40-21l29-11c28-10 48-23 61-40 13-16 19-37 19-63 0-34-10-60-30-77z m127-271h-418c-106 0-191 86-191 192v474c0 64 31 123 83 158l209 143c64 44 152 44 216 0l209-143c52-35 84-94 84-158v-474c0-106-86-192-192-192z m-209 903c-19 0-37-6-53-17l-209-143c-25-17-40-46-40-77v-474c0-52 41-94 93-94h418c52 0 94 42 94 94v474c0 31-16 60-41 77l-209 143c-16 11-34 17-53 17z m-49-114c0-27 22-49 49-49s49 22 49 49-22 49-49 49-49-22-49-49z" horiz-adv-x="1000" />
<glyph glyph-name="menu" unicode="&#xe020;" d="m0 767l0-167 1000 0 0 167z m0-500l1000 0 0 166-1000 0z m0-334l1000 0 0 167-1000 0z" horiz-adv-x="1000" />
<glyph glyph-name="modules" unicode="&#xe021;" d="m467 383h-267v267h267v-267z m0-66h-267v-267h267v267z m333 333h-267v-267h267v267z m0-433h-100v100h-67v-100h-100v-67h100v-100h67v100h100v67z m200 437c0 108-88 196-196 196h-608c-108 0-196-88-196-196v-608c0-108 88-196 196-196h608c108 0 196 88 196 196v608z m-100-608c0-53-43-96-96-96h-608c-53 0-96 43-96 96v608c0 53 43 96 96 96h608c53 0 96-43 96-96v-608z" horiz-adv-x="1000" />
<glyph glyph-name="more" unicode="&#xe022;" d="m833 600c-82 0-582 0-666 0-83 0-167-83-167-167 0-82 0-82 0-166 0-83 84-167 167-167 84 0 584 0 666 0 84 0 167 84 167 167 0 84 0 84 0 166 0 84-83 167-167 167z m-500-333l-166 0 0 166 166 0z m251 0l-167 0 0 166 167 0z m249 0l-166 0 0 166 166 0z" horiz-adv-x="1000" />
<glyph glyph-name="orderfulfillment" unicode="&#xe023;" d="m278 200c28 0 50-22 50-50s-22-50-50-50-50 22-50 50 23 50 50 50z m-50 146c0-27 23-50 50-50s50 23 50 50c0 28-22 50-50 50s-50-22-50-50z m0 204c0-28 23-50 50-50s50 22 50 50-22 50-50 50-50-22-50-50z m539 33h-367v-66h367v66z m0-200h-367v-66h367v66z m0-200h-367v-66h367v66z m233 471c0 108-88 196-196 196h-608c-108 0-196-88-196-196v-608c0-108 88-196 196-196h608c108 0 196 88 196 196v608z m-100-608c0-53-43-96-96-96h-608c-53 0-96 43-96 96v608c0 53 43 96 96 96h608c53 0 96-43 96-96v-608z" horiz-adv-x="1000" />
<glyph glyph-name="orderprocessing" unicode="&#xe024;" d="m557 600v-58c9-1 18-3 27-5 17-3 35-9 51-17v-70c-15 11-32 19-48 25-16 5-33 8-49 8-18 0-31-3-41-10-10-7-14-17-14-31 0-10 3-18 10-25 7-6 22-14 44-22l32-12c30-10 52-25 66-43 14-17 21-40 21-67 0-37-11-65-33-83-16-13-38-21-66-25v-65h-53v64c-13 1-26 2-38 5-19 4-37 11-54 19v75c19-13 38-24 57-30 18-7 37-10 55-10 18 0 32 4 42 12 10 8 15 19 15 34 0 11-3 20-10 29-6 8-16 14-29 19l-36 14c-38 14-63 28-76 43-13 16-20 36-20 62 0 34 11 60 33 79 16 14 36 22 61 26v59h53z m-24 217c-257 0-466-210-466-467h97c0 204 166 369 369 369 204 0 369-165 369-369 0-203-165-369-369-369-118 0-226 54-296 149l-79-58c88-118 228-189 375-189 258 0 467 210 467 467 0 257-209 467-467 467z m-533-467l115-187 116 187h-231z" horiz-adv-x="1000" />
<glyph glyph-name="payment" unicode="&#xe025;" d="m533 250h234v-100h-234v100z m467 304v-408c0-108-88-196-196-196h-608c-108 0-196 88-196 196v408c0 108 88 196 196 196h608c108 0 196-88 196-196z m-900 0v-37h800v37c0 53-43 96-96 96h-608c-53 0-96-43-96-96z m800-408v273h-800v-273c0-53 43-96 96-96h608c53 0 96 43 96 96z" horiz-adv-x="1000" />
<glyph glyph-name="refresh" unicode="&#xe026;" d="m226 94c0 0 144 142 144 142 0 0 0-357 0-357 0 0-339 21-339 21 0 0 107 105 107 105-93 97-140 216-138 352 3 136 50 254 148 352 80 81 178 126 290 141 0 0 5-124 5-124-81-15-150-50-210-107-71-71-107-160-110-260 0-102 34-190 103-265m404 729c0 0 339-21 339-21 0 0-107-104-107-104 93-98 140-217 138-352-3-137-50-255-148-352-75-79-173-127-290-144 0 0-2 127-2 127 78 14 147 50 207 107 71 71 107 159 110 259 0 103-34 190-103 266 0 0-141-143-141-143 0 0-3 357-3 357" horiz-adv-x="1000" />
<glyph glyph-name="reports" unicode="&#xe027;" d="m1000 46c0-108-88-196-196-196h-608c-108 0-196 88-196 196v608c0 108 88 196 196 196h608c108 0 196-88 196-196v-608z m-100 608c0 53-43 96-96 96h-608c-53 0-96-43-96-96v-608c0-53 43-96 96-96h608c53 0 96 43 96 96v608z m-233-604h133v500h-133v-500z m-234 0h134v367h-134v-367z m-233 0h133v233h-133v-233z" horiz-adv-x="1000" />
<glyph glyph-name="requestsupport" unicode="&#xe028;" d="m234-117c-22 0-42 8-58 23-17 16-26 38-26 61v189c-86 22-150 99-150 190v274c0 109 88 197 196 197h608c108 0 196-88 196-197v-274c0-108-88-196-196-196h-282l-235-247c-15-13-34-20-53-20z m-38 834c-53 0-96-44-96-97v-274c0-52 46-96 100-96h50v-241l229 241h325c53 0 96 43 96 96v274c0 53-43 97-96 97h-608z m112-167c-34 0-62-28-62-63s28-62 62-62 63 28 63 62-28 63-63 63z m193 0c-34 0-62-28-62-63s28-62 62-62 63 28 63 62-28 63-63 63z m193 0c-35 0-63-28-63-63s28-62 63-62c35 0 63 28 63 62s-28 63-63 63z" horiz-adv-x="1000" />
<glyph glyph-name="reset" unicode="&#xe029;" d="m567 785c120 0 222-43 307-128 82-85 126-187 126-307 0-120-44-224-126-309-85-85-187-126-307-126-102 0-191 31-268 93 0 0 75 79 75 79 58-44 122-64 193-64 89 0 165 31 227 95 65 64 96 141 96 232 0 89-31 168-96 230-62 64-138 96-227 96-89 0-165-30-228-91-65-63-96-137-98-224 0 0 151 0 151 0 0 0-195-218-195-218 0 0-197 218-197 218 0 0 133 0 133 0 2 115 43 217 128 300 86 83 187 124 306 124" horiz-adv-x="1000" />
<glyph glyph-name="save" unicode="&#xe02a;" d="m823 850l177-195 0-680q0-50-36-88-36-37-89-37l-750 0q-50 0-87 37-38 38-38 88l0 750q0 53 38 89 37 36 87 36l698 0z m-73-375l0 313-500 0 0-313q0-25 19-44 19-18 44-18l375 0q25 0 43 18 19 19 19 44z m-62 250l0-250-125 0 0 250 125 0z" horiz-adv-x="1000" />
<glyph glyph-name="show" unicode="&#xe02b;" d="m488 695c291 0 487-340 487-340s-196-339-487-339-488 339-488 339 196 340 488 340z m0-579c131 0 238 108 238 239s-107 239-238 239-239-108-239-239 107-239 239-239z m107 239c0-59-50-106-107-106-59 0-107 47-107 106 0 57 48 107 107 107 57 0 107-50 107-107z" horiz-adv-x="975" />
<glyph glyph-name="show_list" unicode="&#xe02c;" d="m967 83l-549 0 0 0c0 0 0 0 0 0-17 0-32-19-32-37 0 0 0 0 0-3l0-159 0 0c0-19 15-34 32-34l0 0 549 0 0 0c18 0 32 15 32 34l0 159c0 3 0 3 0 3 0 18-14 37-32 37z m-771 0l-163 0c-17 0-32-19-32-37l0-162c0-19 15-34 32-34l163 0c19 0 36 15 36 34l0 162c0 18-17 37-36 37z m771 385l-549 0 0 0c0 0 0 0 0 0-17 0-32-19-32-37 0 0 0 0 0-3l0-159 0 0c0-18 15-34 32-34l0 0 549 0 0 0c18 0 32 16 32 34l0 159c0 3 0 3 0 3 0 18-14 37-32 37z m-771 0l-163 0c-17 0-32-19-32-37l0-162c0-18 15-34 32-34l163 0c19 0 36 16 36 34l0 162c0 18-17 37-36 37z m190 186l0 0c0-18 15-37 32-37l0 0 549 0 0 0c18 0 32 19 32 37l0 159c0 0 0 0 0 3 0 19-14 34-32 34l0 0-549 0 0 0c0 0 0 0 0 0-17 0-32-15-32-34 0-3 0-3 0-3l0-159z m-190 196l-163 0c-17 0-32-15-32-34l0-162c0-18 15-37 32-37l163 0c19 0 36 19 36 37l0 162c0 19-17 34-36 34z" horiz-adv-x="1000" />
<glyph glyph-name="sort" unicode="&#xe02d;" d="m662 789h-202v-204h202v204z m-67-338h-135v-202h135 202v202h-202z m151-336h-151-135v-204h135 151 254v204h-254z m-487 66v608h-137v-608h-122l186-268 185 268h-112z" horiz-adv-x="1000" />
<glyph glyph-name="sort_asc" unicode="&#xe02e;" d="m0 24q0 39 19 68l438 649q18 26 44 26 26 0 44-26l437-649q18-29 18-68 0-39-18-65-17-26-43-26h-876q-26 0-44 26-17 26-19 65z" horiz-adv-x="1000" />
<glyph glyph-name="sort_desc" unicode="&#xe02f;" d="m0 676q0-39 19-68l438-649q18-26 44-26 26 0 44 26l437 649q18 29 18 68 0 39-18 65-17 26-43 26h-876q-26 0-44-26-17-26-19-65z" horiz-adv-x="1000" />
<glyph glyph-name="storesettings" unicode="&#xe030;" d="m500-150c-276 0-500 224-500 500s224 500 500 500 500-224 500-500-224-500-500-500z m0 900c-221 0-400-179-400-400s179-400 400-400 400 179 400 400-179 400-400 400z m-1-76c-35 0-63-28-63-63s28-63 63-63 63 28 63 63-28 63-63 63z m-302-301c0-27 22-48 49-48s48 21 48 48c0 27-22 48-48 48s-49-21-49-48z m386-234l-45 231c-3 16-20 28-39 28h0c-19 0-36-12-39-28l-45-231c-8-44 31-85 83-85h2c52 0 91 41 83 85z m-255 462c-31 0-57-25-57-56 0-31 26-57 57-57 31 0 57 26 57 57 0 31-26 56-57 56z m343 0c-31 0-57-25-57-56 0-31 26-57 57-57 31 0 57 26 57 57 0 31-26 56-57 56z m34-228c0-27 22-48 49-48 26 0 48 21 48 48 0 27-22 48-48 48-27 0-49-21-49-48z" horiz-adv-x="1000" />
<glyph glyph-name="systemextensions" unicode="&#xe031;" d="m273 407c-18 21-15 52 6 70 21 18 52 15 70-6l77-92 228 228c19 19 51 19 70 0 20-19 20-51 0-70l-266-266c-9-10-22-15-35-15-1 0-1 0-2 0-14 1-27 7-36 18l-112 133z m727 306v-548c0-51-42-93-93-93h-322v-77h0c37 0 67-30 67-67v-33h-136-31-137v33c0 37 30 67 67 67h1v77h-323c-51 0-93 42-93 93v548c0 51 42 92 93 92h814c51 0 93-41 93-92z m-100-8h-800v-533h800v533z" horiz-adv-x="1000" />
<glyph glyph-name="folder" unicode="&#xe032;" d="m0 62v576q0 55 40 95 40 40 95 40h192q55 0 95-40 40-40 40-95v-19h403q55 0 95-40 40-40 40-94v-423q0-55-40-95-40-40-95-40h-730q-55 0-95 40-40 40-40 95z" horiz-adv-x="1000" />
<glyph glyph-name="template_add" unicode="&#xe033;" d="m750 410l0 266-174 174-576 0 0-1000 750 0 0 2c141 16 250 135 250 280 0 144-109 262-250 278z m-187 363l111-111-111 0z m-500-860l0 874 437 0 0-187 188 0 0-190c-55-6-106-27-145-60l-418 0 0-62 359 0c-11-19-23-41-31-62l-328 0 0-63 315 0c-2-10-2-21-2-31 0-88 41-168 105-219z m656 4c-119 0-215 96-215 215 0 119 96 215 215 215 119 0 215-96 215-215 0-119-96-215-215-215z m-94 558l-500 0 0-63 500 0z m250-312l-125 0 0 125-62 0 0-125-125 0 0-62 125 0 0-125 62 0 0 125 125 0z" horiz-adv-x="1000" />
<glyph glyph-name="unassign" unicode="&#xe034;" d="m928 850l-857 0c-36 0-71-35-71-71l0-857c0-37 35-72 71-72l857 0c35 0 72 35 72 72l0 857c0 36-37 71-72 71z m-71-822c0-17-18-35-36-35l-643 0c-20 0-35 14-35 35l0 644c0 17 17 35 35 35l643 0c18 0 36-18 36-35z m-571 251l428 0 0 142-428 0z" horiz-adv-x="1000" />
<glyph glyph-name="update_available" unicode="&#xe035;" d="m500 850c-276 0-500-224-500-500s224-500 500-500 500 224 500 500-224 500-500 500z m0-854c-195 0-353 159-353 354s158 354 353 354 354-159 354-354-159-354-354-354z m-60 636h118v-152l-27-217h-63l-28 217v152z m2-445h116v-115h-116v115z" horiz-adv-x="1000" />
<glyph glyph-name="upload" unicode="&#xe036;" d="m500 475l-187-188 125 0 0-312 125 0 0 312 125 0z m313 62c-8 0-18-2-26-2-47 111-158 190-287 190-129 0-240-79-287-190-8 0-18 2-25 2-104 0-188-84-188-187 0-104 84-188 188-188 19 0 39 4 56 10 33-37 80-61 131-69l0 63c-49 12-90 43-109 86-22-18-49-27-78-27-69 0-125 56-125 125 0 68 56 125 125 125 25 0 46-8 66-20 21 117 123 207 246 207 123 0 225-90 244-207 20 12 43 20 69 20 68 0 125-57 125-125 0-69-57-125-125-125-10 0-20 2-30 3-27-41-74-66-127-66-11 0-21 2-31 4l0-63c10-1 22-3 31-3 61 0 114 23 155 62 0 0 0 0 2 0 103 0 187 84 187 188 0 103-84 187-187 187z" horiz-adv-x="1000" />
<glyph glyph-name="userinterface" unicode="&#xe037;" d="m467 583h-267v67h267v-67z m333 67h-267v-267h267v267z m-333-100h-267v-67h267v67z m0-100h-267v-67h267v67z m333-133h-600v-67h600v67z m0-100h-600v-67h600v67z m0-100h-600v-67h600v67z m200 537c0 108-88 196-196 196h-608c-108 0-196-88-196-196v-608c0-108 88-196 196-196h608c108 0 196 88 196 196v608z m-100-608c0-53-43-96-96-96h-608c-53 0-96 43-96 96v608c0 53 43 96 96 96h608c53 0 96-43 96-96v-608z" horiz-adv-x="1000" />
<glyph glyph-name="users" unicode="&#xe038;" d="m500 265c-145 0-238 228-238 347 0 131 107 238 238 238 131 0 238-107 238-238 0-119-93-347-238-347z m0 489c-78 0-142-64-142-142 0-95 79-251 142-251s142 156 142 251c0 78-64 142-142 142z m0-904c0 0 0 0 0 0-72 0-317 6-427 84-44 30-63 89-47 141 16 51 39 91 70 124 36 39 83 69 138 89 27 10 60 4 82-15l17-14c49-42 94-81 167-81 72 0 119 40 168 82l16 13c23 20 55 25 83 15 76-28 133-71 168-128 15-24 28-52 38-83 18-54-1-113-46-144-111-77-355-83-427-83z m-240 345c-37-14-70-35-94-61-21-23-36-51-48-88-4-13 0-27 10-34 56-40 206-66 372-66 166 0 316 26 372 66 10 7 14 22 10 35-8 24-17 44-28 62-23 37-61 66-114 86l-9-8c-55-47-123-105-231-105-108 0-175 58-229 104l-11 9z" horiz-adv-x="1000" />
<glyph glyph-name="utilities" unicode="&#xe039;" d="m0 63c0-108 88-196 196-196h608c108 0 196 88 196 196v407c0 109-88 197-196 197h-71v116 0 1c0 27-22 49-49 49h-368c-27 0-49-22-49-49v-1 0-116h-71c-108 0-196-88-196-197v-407z m367 670h266v-66h-266v66z m533-670c0-53-43-96-96-96h-608c-53 0-96 43-96 96v237h133v-51c0-27 22-49 49-49h36c27 0 49 22 49 49v51h266v-51c0-27 22-49 49-49h36c27 0 49 22 49 49v51h133v-237z m0 304h-133v51c0 27-22 49-49 49h-36c-27 0-49-22-49-49v-51h-266v51c0 27-22 49-49 49h-36c-27 0-49-22-49-49v-51h-133v103c0 53 43 97 96 97h608c53 0 96-44 96-97v-103z" horiz-adv-x="1000" />
<glyph glyph-name="viewstore" unicode="&#xe03a;" d="m996 508l-59 199c-14 47-59 80-108 80h-658c-51 0-97-34-110-84l-55-195c-13-45-5-92 24-131 16-20 37-38 60-51v-298c0-60 61-115 129-115h564c71 0 129 58 129 129v288c20 13 38 30 53 49 31 40 42 85 31 129z m-155 171l58-198c3-11-2-26-13-41-21-27-56-45-87-45-55 0-99 44-99 99h0l-19 193h148c6 0 10-3 12-8z m-241-189c-1-54-45-97-99-97s-98 43-99 97l20 197h158l20-197z m-498-10l55 197c2 6 8 10 14 10h150l-19-190 0-3h0c0-55-44-99-99-99-35 0-74 18-92 42-14 18-12 33-9 43z m465-467h-128v146h128v-146z m245 29c0-16-13-29-29-29h-141v135c0 45-36 80-80 80h-122c-44 0-80-35-80-80v-135h-141c-16 0-28 12-29 15v267c4 0 9 0 13 0 59 0 112 26 148 66 37-42 90-68 150-68s113 26 150 68c36-40 89-66 148-66 4 0 9 0 13 1v-254z" horiz-adv-x="1000" />
<glyph glyph-name="columnmenu" unicode="&#xe03b;" d="m0 850h201v-1000h-201v1000z m400 0h200v-1000h-200v1000z m399 0h201v-1000h-201v1000z" horiz-adv-x="1000" />
<glyph glyph-name="pagination_first" unicode="&#xe03c;" d="m0-43v786q0 14 11 25t25 11h71q15 0 25-11t11-25v-379q2 7 7 11l396 396q11 11 18 8t7-18v-396q3 6 8 10l396 396q10 11 18 8t7-18v-822q0-14-7-18t-18 8l-396 396q-5 5-8 11v-397q0-14-7-18t-18 8l-396 396q-5 5-7 11v-379q0-14-11-25t-25-11h-71q-15 0-25 11t-11 25z" horiz-adv-x="1000" />
<glyph glyph-name="pagination_last" unicode="&#xe03d;" d="m0-61v822q0 14 7 18t18-8l396-396q5-4 8-11v397q0 14 7 18t18-8l396-396q4-4 7-11v379q0 14 11 25t25 11h71q15 0 25-11t11-25v-786q0-14-11-25t-25-11h-71q-15 0-25 11t-11 25v379q-3-6-7-11l-396-396q-11-11-18-8t-7 18v397q-3-6-8-11l-396-396q-10-11-18-8t-7 18z" horiz-adv-x="1000" />
<glyph glyph-name="pagination_prev" unicode="&#xe03e;" d="m68 350q0 15 11 25l396 396q11 11 18 8t7-18v-396q3 6 7 10l396 396q11 11 18 8t8-18v-822q0-14-8-18t-18 8l-396 396q-4 5-7 11v-397q0-14-7-18t-18 8l-396 396q-11 11-11 25z" horiz-adv-x="928" />
<glyph glyph-name="pagination_next" unicode="&#xe03f;" d="m0-61v822q0 14 7 18t18-8l396-396q5-4 8-11v397q0 14 7 18t18-8l396-396q10-11 10-25t-10-25l-396-396q-11-11-18-8t-7 18v396q-3-5-8-10l-396-396q-10-11-18-8t-7 18z" horiz-adv-x="928" />
<glyph glyph-name="search" unicode="&#xe040;" d="m426 828c-234 0-426-187-426-414 0-228 192-415 426-415 94 0 180 30 251 80l200-194c22-22 64-15 95 15 30 29 37 71 15 92l-203 198c43 64 68 141 68 224 0 227-192 414-426 414z m0-157c147 0 265-115 265-257 0-143-118-257-265-257-147 0-264 114-264 257 0 142 117 257 264 257z" horiz-adv-x="1000" />
<glyph glyph-name="loading" unicode="&#xe041;" d="m462 850c-6 0-11-5-11-11l0-183 0 0c0-6 5-11 11-11l69 0c1 0 1 0 1 0 7 0 12 5 12 11l0 183 0 0c0 6-5 11-12 11l-69 0c0 0 0 0-1 0z m250-47c-4 1-8-2-10-5l-91-158 0 0c-4-6-2-13 4-16l60-35c0 0 0 0 0 0 6-3 13-1 16 4l91 158c3 6 2 13-4 16l-61 35c-1 1-3 1-5 1z m-428-2c-2 0-4-1-6-2l-61-35c-5-3-7-10-4-16l91-157c0 0 0 0 0 0 3-6 10-8 16-5l61 35c5 4 7 11 4 16l-91 157c0 1 0 1 0 1-2 4-6 6-10 6z m620-163c-2 0-4 0-6-1l-157-91c0 0 0 0 0 0-6-3-8-10-5-16l35-61c4-5 11-7 16-4l157 91c1 0 1 0 1 0 6 3 7 10 4 16l-35 61c-2 3-6 5-10 5z m-810-4c-5 0-9-2-11-6l-35-61c-3-5-1-12 4-15l158-92 0 0c6-3 13-1 16 5l35 60c0 0 0 0 0 0 3 6 1 13-4 16l-158 91c-2 1-4 2-5 2z m712-235l0 0c-6 0-11-5-11-11l0-69c0-1 0-1 0-1 0-7 5-12 11-12l183 0 0 0c6 0 11 5 11 12l0 69c0 0 0 0 0 1 0 6-5 11-11 11l-183 0z m-794-5l0 0c-7 0-12-5-12-12l0-69c0 0 0 0 0-1 0-6 5-11 12-11l182 0 0 0c6 0 11 5 11 11l0 69c0 1 0 1 0 1 0 7-5 12-11 12l-182 0z m772-153c-4 0-8-2-10-6l-34-60c-1 0-1 0-1 0-3-6-1-13 4-16l158-91c6-3 13-2 16 4l35 61c3 5 1 12-4 15l-158 91 0 0c-2 1-4 2-6 2z m-566-5c-1 0-3 0-5-1l-157-91c0 0-1 0-1 0-5-3-7-11-4-16l35-61c3-5 10-7 16-4l157 91c0 0 0 0 0 0 6 3 8 10 5 16l-35 61c-3 3-7 5-11 5z m468-121c-2 0-4 0-6-1l-61-35c-5-4-7-11-4-16l91-157c0-1 0-1 0-1 3-6 11-7 16-4l61 35c5 3 7 10 4 16l-91 157c0 0 0 0 0 0-2 4-6 6-10 6z m-367-3c-4 1-8-2-10-5l-91-158c-3-6-1-13 4-16l61-35c5-3 12-1 15 4l92 158 0 0c3 6 1 13-5 16l-60 34c0 1 0 1 0 1-2 1-4 1-6 1z m149-57c-7 0-12-5-12-11l0-183 0 0c0-6 5-11 12-11l69 0c0 0 0 0 1 0 6 0 11 5 11 11l0 183 0 0c0 6-5 11-11 11l-69 0c-1 0-1 0-1 0z" horiz-adv-x="1000" />
<glyph glyph-name="dismiss" unicode="&#xe042;" d="m375 850l0-250 250 0 0 250-250 0z m313 0l0-250 62 0 0 250-62 0z m125 0l0-250 62 0 0 250-62 0z m125 0l0-250 62 0 0 250-62 0z m-688-375l0-250 375 0 0 250-375 0z m438 0l0-250 62 0 0 250-62 0z m125 0l0-250 62 0 0 250-62 0z m-813-375l0-250 625 0 0 250-625 0z" horiz-adv-x="1000" />
<glyph glyph-name="bseparator" unicode="&#xe043;" d="m355 850l-35-23 0 0-38-26 27-36 301-415-301-415-27-36 38-26 0 0 35-23 25 34 316 435 22 30-1 1 1 1-22 30-316 435-25 34z" horiz-adv-x="1000" />
</font>
</defs>
</svg>
